<?xml version="1.0" encoding="UTF-8" standalone="no"?><!DOCTYPE svg PUBLIC "-//W3C//DTD SVG 1.1//EN" "http://www.w3.org/Graphics/SVG/1.1/DTD/svg11.dtd"><svg width="100%" height="100%" viewBox="0 0 2500 2500" version="1.1" xmlns="http://www.w3.org/2000/svg" xmlns:xlink="http://www.w3.org/1999/xlink" xml:space="preserve" xmlns:serif="http://www.serif.com/" style="fill-rule:evenodd;clip-rule:evenodd;stroke-linejoin:round;stroke-miterlimit:2;"><rect id="Artboard1" x="0" y="0" width="2500" height="2500" style="fill:none;"/><g><path d="M939.583,194.927l-783.333,0l0,1326.81c0,432.623 350.71,783.334 783.333,783.334l0,-0l0,-2110.15Z" style="fill:#363636;"/><path d="M1006.25,424.627c141.787,-141.917 337.725,-229.7 554.167,-229.7l-0,0l-0,905.979l-33.334,0l0,1100.23c0,57.404 -46.535,103.94 -103.94,103.94c-151.959,-0 -416.893,-0 -416.893,-0l0,-1880.45Z" style="fill:#363636;"/><path d="M1560.42,1100.91l33.333,0l0,1100.23c0,57.404 46.536,103.94 103.94,103.94c205.934,-0 646.06,-0 646.06,-0l-0,-1326.81c-0,-432.623 -350.71,-783.334 -783.333,-783.334l-0,0l-0,905.979Z" style="fill:#363636;"/></g></svg>