<?xml version="1.0" standalone="no"?>
<!DOCTYPE svg PUBLIC "-//W3C//DTD SVG 20010904//EN"
 "http://www.w3.org/TR/2001/REC-SVG-20010904/DTD/svg10.dtd">
<svg version="1.0" xmlns="http://www.w3.org/2000/svg"
 width="700.000000pt" height="700.000000pt" viewBox="0 0 700.000000 700.000000"
 preserveAspectRatio="xMidYMid meet">
<metadata>
Created by potrace 1.14, written by Peter Selinger 2001-2017
</metadata>
<g transform="translate(0.000000,700.000000) scale(0.100000,-0.100000)"
fill="#000000" stroke="none">
<path d="M442 6446 c-7 -12 -6 -3722 2 -3856 5 -91 13 -147 41 -305 21 -115
81 -300 137 -423 15 -34 28 -64 28 -66 0 -2 23 -45 51 -97 77 -142 166 -271
279 -403 14 -16 59 -63 100 -104 401 -401 902 -618 1485 -644 l60 -3 3 2953
c2 2358 0 2952 -10 2953 -81 7 -2171 2 -2176 -5z"/>
<path d="M4287 6454 c-1 -1 -38 -4 -82 -8 -210 -17 -370 -49 -559 -115 -278
-96 -551 -261 -775 -468 l-54 -49 1 -2610 c0 -1435 1 -2620 1 -2634 l1 -25
592 1 c326 0 611 4 633 8 89 17 161 75 203 166 l26 55 1 1571 0 1571 93 0 c61
0 92 -3 93 -11 0 -6 1 -715 2 -1576 l2 -1565 27 -53 c34 -66 78 -107 148 -140
l54 -26 924 0 c508 -1 929 2 935 6 12 7 15 3684 3 3863 -6 89 -13 145 -31 250
-39 222 -126 456 -258 695 -30 56 -136 210 -181 265 -77 94 -91 109 -176 193
-335 332 -763 547 -1218 612 -101 15 -395 32 -405 24z"/>
</g>
</svg>
